<svg width="72" height="72" viewBox="0 0 72 72" fill="none" xmlns="http://www.w3.org/2000/svg">
<path d="M43.8159 22.1858C45.3999 21.3072 46.9684 20.4371 47.2919 19.323C48.1274 16.4462 45.1337 15.2033 42.9759 16.4364C40.818 17.6694 38.8109 23.9211 38.8109 23.9211C37.5436 20.9083 38.8424 18.1571 39.9764 15.7553C40.7117 14.1979 41.3777 12.7874 41.2294 11.5479C40.8526 8.39666 36.8283 8.1028 35.612 11.0341C34.8289 12.9215 35.5908 17.503 36.153 20.8848C36.464 22.7551 36.7139 24.2584 36.6078 24.736C36.5097 25.1777 36.2101 25.5035 35.8524 25.7417C33.2212 26.0781 30.9815 27.6663 29.7492 29.8904C27.4008 29.0997 29.3114 25.0248 30.6083 23.3539C32.08 21.4578 29.5173 18.5749 26.8743 20.777C24.2313 22.9791 26.8743 29.0338 26.8743 29.0338C24.0082 28.3387 23.818 25.482 23.6701 23.26C23.6115 22.3801 23.5596 21.5997 23.3507 21.0925C22.6144 19.3044 19.2679 18.2711 18.4072 21.6184C17.5611 24.9088 21.9323 31.2421 29.0624 31.1629C27.2868 32.3796 23.8288 32.121 20.7036 31.8871C18.8032 31.745 17.0259 31.612 15.8248 31.8256C12.1029 32.4877 12.1326 36.8361 15.4792 36.5393C16.9165 36.4117 17.6118 35.8486 18.3404 35.2586C19.3084 34.4746 20.3352 33.643 23.2386 33.7218C23.2386 33.7218 19.4327 37.2674 19.86 40.5809C20.2873 43.8944 23.5726 43.1 23.8615 41.1463C23.9661 40.4398 23.8003 39.9671 23.6282 39.476C23.3242 38.6091 23.0001 37.6845 24.1069 35.3148C25.5075 32.3157 27.8831 33.6772 28.7441 34.311C28.8989 37.049 30.4023 39.4265 32.6006 40.7894C33.0272 41.7128 33.007 42.9852 31.1266 44.319C28.9575 45.8575 26.3143 45.8289 23.9728 45.8034C22.3564 45.786 20.8839 45.77 19.8102 46.2722C17.1813 47.5018 16.5479 50.5517 19.072 51.3608C20.3518 51.7711 21.4602 51.1496 23.0711 50.2463C24.6372 49.3681 26.6783 48.2236 29.8137 47.5018C29.8137 47.5018 23.8461 53.2307 23.8461 57.6467C23.8461 62.0627 27.9674 63.7736 30.0126 60.7101C31.0428 59.1671 31.4264 56.2396 31.8178 53.2532C32.2033 50.3108 32.5964 47.311 33.6229 45.5217C34.1779 44.5541 34.7692 43.8179 35.3374 43.2588C35.1636 45.0154 34.7015 50.9468 36.2295 52.2566C38.0283 53.7984 39.6069 52.1464 39.6069 50.3844C39.6069 49.5282 38.9397 48.4469 38.2452 47.3211C37.5102 46.1299 36.7445 44.889 36.7067 43.813C36.6765 42.9517 36.8146 42.3849 36.9873 42.0162C36.9913 42.0139 36.9954 42.0118 36.9994 42.0097C39.158 41.9835 41.1152 41.12 42.5609 39.7287C43.5901 40.2216 45.0995 41.2185 45.3748 42.9086C45.6296 44.4726 44.8398 45.6484 44.1661 46.6512C43.7161 47.3211 43.318 47.914 43.318 48.4936C43.318 49.9409 44.4351 50.617 45.7106 49.9293C46.986 49.2414 46.8172 44.5685 46.8172 44.5685C47.8949 45.4984 48.0164 47.4889 48.1272 49.3068C48.2225 50.8694 48.31 52.3042 48.9903 52.8278C50.4625 53.9609 52.4568 53.1955 52.6192 50.9461C52.7815 48.6966 48.6714 44.157 48.6714 44.157C52.2728 45.2079 56.4582 46.2847 58.0583 44.5685C59.6585 42.8524 58.7068 39.8851 55.879 40.2499C55.3575 40.3171 54.7194 40.5016 54.0064 40.7077C51.0329 41.5673 46.7571 42.8032 44.2097 37.4872C44.7575 36.3901 45.0657 35.1524 45.0657 33.8429C45.0657 33.0891 44.9636 32.3594 44.7726 31.6664C45.126 31.2272 45.752 30.8819 46.8555 30.9337C48.7981 31.0248 50.244 32.3847 51.4586 33.5272C52.0051 34.0411 52.5046 34.5109 52.9816 34.8017C54.5192 35.7386 57.2757 35.4912 56.8895 33.2562C56.6766 32.0231 54.0951 31.3902 51.9097 30.8545C50.1338 30.4191 48.6194 30.0477 48.8489 29.4706C49.1177 28.7949 50.6254 28.4897 52.253 28.1602C54.0338 27.7998 55.9581 27.4103 56.5599 26.4746C57.7116 24.6836 56.5841 22.4458 53.9812 23.1599C52.6494 23.5252 50.9183 25.0121 49.296 26.4056C47.7475 27.7357 46.2983 28.9808 45.3899 29.0839C44.6187 29.1714 43.9103 29.0268 43.345 28.8275C42.5554 27.8139 41.5317 26.9912 40.3552 26.4408C39.4886 24.5861 41.6663 23.3781 43.8159 22.1858Z" fill="url(#paint0_linear)"/>
<defs>
<linearGradient id="paint0_linear" x1="13" y1="9" x2="58.8331" y2="62.261" gradientUnits="userSpaceOnUse">
<stop stop-color="#0E85F3"/>
<stop offset="1" stop-color="#21FEC9"/>
</linearGradient>
</defs>
</svg>
