<svg width="72" height="72" viewBox="0 0 72 72" fill="none" xmlns="http://www.w3.org/2000/svg">
<path fill-rule="evenodd" clip-rule="evenodd" d="M37.9472 19.9428L35.8359 17.8315C35.3354 17.331 35.0544 16.652 35.0544 15.9442C35.0544 15.2364 35.3354 14.5577 35.8359 14.0572C36.2145 13.6786 36.6124 13.2807 36.991 12.9021C37.4915 12.4016 38.1702 12.1206 38.8783 12.1206C39.5861 12.1206 40.2648 12.4016 40.7653 12.9021C43.3356 15.4724 47.9103 20.047 50.4805 22.6173C51.5228 23.6596 51.5228 25.3493 50.4805 26.3916C47.9103 28.9619 43.3356 33.5365 40.7653 36.1068C40.2648 36.6073 39.5861 36.8886 38.8783 36.8886C38.1702 36.8886 37.4915 36.6073 36.991 36.1068C36.6124 35.7282 36.2145 35.3305 35.8359 34.9519C35.3354 34.4514 35.0544 33.7725 35.0544 33.0647C35.0544 32.3569 35.3354 31.6779 35.8359 31.1774L37.9348 29.0785H34.1125C32.6387 29.0785 31.4437 30.2735 31.4437 31.7476C31.4437 37.4265 31.4437 50.652 31.4437 56.3312C31.4437 57.805 30.2488 59 28.7749 59C27.5793 59 26.1725 59 24.9768 59C24.2687 59 23.59 58.7187 23.0895 58.2182C22.589 57.7177 22.3077 57.039 22.3077 56.3312C22.3077 50.4661 22.3077 36.2755 22.3077 27.4489C22.3077 25.4581 23.0986 23.5489 24.5063 22.1411C25.9141 20.7334 27.8233 19.9428 29.8139 19.9428H37.9472Z" fill="url(#paint0_linear)"/>
<defs>
<linearGradient id="paint0_linear" x1="36.785" y1="12.1206" x2="36.785" y2="59" gradientUnits="userSpaceOnUse">
<stop stop-color="#FF7037"/>
<stop offset="1" stop-color="#FF3852"/>
</linearGradient>
</defs>
</svg>
