<svg width="72" height="72" viewBox="0 0 72 72" fill="none" xmlns="http://www.w3.org/2000/svg">
<path d="M43.2133 13.8383L30.2446 13.0814L30.2854 26.413L40.4795 26.8244L40.4731 20.7563L43.2385 17.2169L43.2133 13.8383Z" fill="#E21A3D"/>
<path d="M40.4731 20.7563L40.4795 26.8244L43.3111 26.9387L43.2385 17.2169L40.4731 20.7563Z" fill="#E21A3D"/>
<path d="M58.3311 27.5448L58.1712 14.7113L45.7621 13.987L45.864 27.0417L58.3311 27.5448Z" fill="#E21A3D"/>
<path d="M58.5248 43.0853L58.3634 30.1327L54.2349 29.9867L54.2046 29.9856L50.8816 31.9511L45.9011 31.7961L45.9876 42.8775L58.5248 43.0853Z" fill="#E21A3D"/>
<path d="M50.8816 31.9511L54.2046 29.9856L45.8847 29.6913L45.9011 31.7961L50.8816 31.9511Z" fill="#E21A3D"/>
<path d="M30.3851 59L43.5494 58.8725L43.4498 45.5269L30.3434 45.369L30.3851 59Z" fill="#E21A3D"/>
<path d="M13.9344 28.5613V42.3463L27.5559 42.572L27.5253 31.2244L27.5194 29.0418L13.9344 28.5613Z" fill="#E21A3D"/>
<path d="M27.6729 42.574L27.6429 31.2281L27.5253 31.2244L27.5559 42.572L27.6729 42.574Z" fill="#E21A3D"/>
<path d="M27.5253 31.2244L27.6423 31.0204L27.6371 29.0459L27.5194 29.0418L27.5253 31.2244Z" fill="#E21A3D"/>
<path d="M27.5253 31.2244L27.6429 31.2281L27.6423 31.0204L27.5253 31.2244Z" fill="#E21A3D"/>
<path d="M30.2854 26.413L30.2446 13.0814L27.4955 20.2016L27.5194 29.0418L27.6371 29.0459L28.7524 29.0854L30.2854 26.413Z" fill="#9E162E"/>
<path d="M45.864 27.0417L45.7621 13.987L43.2385 17.2169L43.3111 26.9387L45.864 27.0417Z" fill="#9E162E"/>
<path d="M43.3279 29.1989L45.864 27.0417L43.3111 26.9387L43.3279 29.1989Z" fill="#9E162E"/>
<path d="M43.3111 26.9387L40.5458 29.5025L42.8742 29.5848L43.3279 29.1989L43.3111 26.9387Z" fill="#9E162E"/>
<path d="M40.4824 29.5613L40.4846 31.6175L42.8742 29.5848L40.5458 29.5025L40.4824 29.5613Z" fill="#9E162E"/>
<path d="M27.5194 29.0418L27.5253 31.2244L27.6423 31.0204L27.6371 29.0459L27.5194 29.0418Z" fill="#9E162E"/>
<path d="M28.7524 29.0854L27.6371 29.0459L27.6423 31.0204L28.7524 29.0854Z" fill="#9E162E"/>
<path d="M45.9876 42.8775L45.9011 31.7961L43.3467 31.7166L43.4297 42.8351L45.9876 42.8775Z" fill="#9E162E"/>
<path d="M43.228 31.7129L40.4869 33.7988L40.4964 42.7865L43.4297 42.8351L43.3467 31.7166L43.228 31.7129Z" fill="#9E162E"/>
<path d="M45.9011 31.7961L45.8847 29.6913L43.346 31.6231L43.3467 31.7166L45.9011 31.7961Z" fill="#9E162E"/>
<path d="M40.4984 44.732L43.4365 43.7394L43.4297 42.8351L40.4964 42.7865L40.4984 44.732Z" fill="#9E162E"/>
<path d="M45.9876 42.8775L43.4297 42.8351L43.4365 43.7394L45.9876 42.8775Z" fill="#9E162E"/>
<path d="M27.5976 58.0061L30.3851 59L30.3434 45.369L30.3168 45.3687L27.5673 46.7923L27.5976 58.0061Z" fill="#9E162E"/>
<path d="M43.228 31.7129L43.3467 31.7166L43.346 31.6231L43.228 31.7129Z" fill="#9E162E"/>
<path d="M40.4795 26.8244L30.2854 26.413L30.2937 29.1399L40.4823 29.5002L40.4795 26.8244Z" fill="#831428"/>
<path d="M30.3004 31.3108L38.3261 31.5605L40.4824 29.5613L40.4823 29.5002L30.2937 29.1399L30.3004 31.3108Z" fill="#831428"/>
<path d="M27.6429 31.2281L30.3004 31.3108L30.2937 29.1399L28.7524 29.0854L27.6423 31.0204L27.6429 31.2281Z" fill="#831428"/>
<path d="M30.2854 26.413L28.7524 29.0854L30.2937 29.1399L30.2854 26.413Z" fill="#831428"/>
<path d="M43.3111 26.9387L40.4795 26.8244L40.4823 29.5002L40.5458 29.5025L43.3111 26.9387Z" fill="#831428"/>
<path d="M58.3311 27.5448L45.864 27.0417L45.8847 29.6913L54.2046 29.9856L58.3311 27.5448Z" fill="#831428"/>
<path d="M45.8847 29.6913L45.864 27.0417L43.3279 29.1989L43.3309 29.601L45.8847 29.6913Z" fill="#831428"/>
<path d="M43.346 31.6231L45.8847 29.6913L43.3309 29.601L43.346 31.6231Z" fill="#831428"/>
<path d="M42.8742 29.5848L40.4846 31.6175L40.4846 31.6276L43.228 31.7129L43.346 31.6231L43.3309 29.601L42.8742 29.5848Z" fill="#831428"/>
<path d="M58.5248 43.0853L45.9876 42.8775L43.4365 43.7394L43.4441 44.769L50.9771 44.8637L58.5248 43.0853Z" fill="#831428"/>
<path d="M43.4365 43.7394L40.4984 44.732L43.4441 44.769L43.4365 43.7394Z" fill="#831428"/>
<path d="M13.9344 42.3463L14.0608 44.3996L25.3278 44.5412L27.5562 42.6719L27.5559 42.572L13.9344 42.3463Z" fill="#831428"/>
<path d="M43.3279 29.1989L42.8742 29.5848L43.3309 29.601L43.3279 29.1989Z" fill="#831428"/>
</svg>
