<svg width="73" height="72" viewBox="0 0 73 72" fill="none" xmlns="http://www.w3.org/2000/svg">
<path d="M18.0471 25.8782C18.0471 25.8782 22.6441 15.5363 34.402 14.3113C46.1599 13.0862 53.2888 23.504 53.2888 23.504" stroke="#ED2771" stroke-width="2.85061" stroke-linecap="round"/>
<path d="M36.2228 34.7632C36.2228 34.7632 32.8518 40.3735 29.9585 43.3773C27.0651 46.3811 19.8149 51.9914 19.8149 51.9914" stroke="#ED2771" stroke-width="2.85061" stroke-linecap="round"/>
<path d="M17.3489 46.7924C17.3489 46.7924 22.104 44.1175 26.9727 38.7878C31.8413 33.4581 30.8191 28.9918 36.2228 28.9918C39.3591 28.9918 42.9704 32.3752 40.3236 38.7878C37.6768 45.2004 23.9253 55.3162 23.9253 55.3162" stroke="#ED2771" stroke-width="2.85061" stroke-linecap="round"/>
<path d="M53.8442 28.033C53.8442 28.033 55.1104 31.6887 55.1104 35.641C55.1104 39.5932 54.2562 43.2528 54.2562 43.2528" stroke="#ED2771" stroke-width="2.85061" stroke-linecap="round"/>
<path d="M40.3916 45.9356C40.3916 45.9356 39.2096 48.5863 40.0644 51.2319C40.9193 53.8775 44.2303 55.8471 44.2303 55.8471" stroke="#ED2771" stroke-width="2.85061" stroke-linecap="round"/>
<path d="M29.2605 56.8738C29.2605 56.8738 32.0036 52.6671 34.9888 53.4135C37.9739 54.16 38.1624 57.7889 38.1624 57.7889" stroke="#ED2771" stroke-width="2.85061" stroke-linecap="round"/>
<path d="M17.4158 40.2861C17.4158 40.2861 20.3971 39.3024 23.7971 35.0403C27.1971 30.7781 28.3322 23.2122 37.6033 24.1758C40.3684 24.4632 44.5959 26.6828 45.5981 31.3201C46.6003 35.9574 44.0732 42.2807 44.5347 45.0601C45.5981 51.4647 50.5764 52.6215 50.5764 52.6215" stroke="#ED2771" stroke-width="2.85061" stroke-linecap="round"/>
<path d="M17.4458 33.4909C17.4458 33.4909 20.7267 31.9476 23.3578 26.7646C26.944 19.7 36.2265 18.2603 40.7572 19.9401C55.426 25.3785 49.1298 37.792 49.4576 42.3083C49.7854 46.8246 53.1101 48.7518 53.1101 48.7518" stroke="#ED2771" stroke-width="2.85061" stroke-linecap="round"/>
</svg>
