<svg width="72" height="72" viewBox="0 0 72 72" fill="none" xmlns="http://www.w3.org/2000/svg">
<path d="M34.1851 17.3467C32.9947 17.8767 32.0829 19.4559 30.2594 22.6144L26.5732 28.9991C25.7297 30.4601 25.3079 31.1906 25.1429 31.9672C24.9968 32.6543 24.9968 33.3645 25.1429 34.0516C25.3079 34.8283 25.7297 35.5587 26.5732 37.0197L35.2161 51.9897C36.0596 53.4507 36.4813 54.1812 37.0714 54.7124C37.5934 55.1825 38.2085 55.5376 38.8766 55.7547C39.6317 56 40.4752 56 42.1621 56H49.5346C53.1817 56 55.0052 56 56.0594 55.2341C56.9789 54.5661 57.5717 53.5392 57.6905 52.4089C57.8267 51.113 56.9149 49.5338 55.0914 46.3753L41.373 22.6144C39.5495 19.4559 38.6377 17.8767 37.4473 17.3467C36.409 16.8844 35.2234 16.8844 34.1851 17.3467Z" fill="url(#paint0_radial)"/>
<path d="M25.6075 56C27.431 56 28.3428 56 28.8699 55.6171C29.3296 55.283 29.626 54.7696 29.6854 54.2045C29.7535 53.5565 29.2976 52.7669 28.3859 51.1877L23.8526 43.3359C22.9409 41.7567 22.485 40.967 21.8898 40.702C21.3707 40.4709 20.7778 40.4709 20.2587 40.702C19.6635 40.967 19.2076 41.7567 18.2958 43.3359L16.541 46.3753C14.7175 49.5338 13.8057 51.113 13.9419 52.4089C14.0607 53.5392 14.6535 54.5661 15.573 55.2341C16.6272 56 18.4507 56 22.0978 56H25.6075Z" fill="url(#paint1_radial)"/>
<defs>
<radialGradient id="paint0_radial" cx="0" cy="0" r="1" gradientUnits="userSpaceOnUse" gradientTransform="translate(14.2294 54.0951) rotate(-30.1763) scale(41.2866 46.3418)">
<stop stop-color="#21E1B3"/>
<stop offset="1" stop-color="#5548EF"/>
</radialGradient>
<radialGradient id="paint1_radial" cx="0" cy="0" r="1" gradientUnits="userSpaceOnUse" gradientTransform="translate(14.2294 54.0951) rotate(-30.1763) scale(41.2866 46.3418)">
<stop stop-color="#21E1B3"/>
<stop offset="1" stop-color="#5548EF"/>
</radialGradient>
</defs>
</svg>
