<svg width="72" height="72" viewBox="0 0 72 72" fill="none" xmlns="http://www.w3.org/2000/svg">
<path fill-rule="evenodd" clip-rule="evenodd" d="M23.3047 48.287C26.5139 51.5245 31.023 53.4598 35.9375 53.2695C36.9924 53.2287 38.0213 53.0915 39.0155 52.867C42.8152 52.0059 46.7525 53.5764 48.9163 56.8163C47.669 57.6217 46.3641 58.3096 44.9985 58.8725C38.8804 61.3932 31.7386 61.2879 25.7093 58.5422C23.2128 57.4054 21.8784 55.5799 21.5644 53.6244C21.2506 51.6688 21.8985 49.6818 23.3047 48.287ZM19.7146 29.8968C18.7932 32.0905 18.3245 34.5216 18.4227 37.0603C18.4402 37.5127 18.4756 37.96 18.5275 38.402C18.9466 41.9226 17.0968 45.324 13.9138 46.886C12.3783 43.5918 11.6825 39.9472 11.6825 36.3098C11.6825 32.9754 12.9817 31.2054 14.5475 30.2679C16.113 29.3304 18.031 29.1925 19.7146 29.8968ZM29.8924 20.4143C28.7742 20.7914 27.7144 21.2796 26.7186 21.8679C23.8781 23.547 20.2801 23.2087 17.8023 21.03C18.9454 19.7828 20.226 18.6642 21.6119 17.6919C23.0173 16.7086 24.8038 16.4453 26.4334 16.981C28.0626 17.5167 29.3444 18.789 29.8924 20.4143Z" fill="var(--jhm-primary-text-color)"/>
<path fill-rule="evenodd" clip-rule="evenodd" d="M35.2821 10.7362L35.309 10.7369C40.5949 10.8368 45.7335 12.5824 49.9173 15.6453C54.6845 19.1352 58.1839 24.334 59.5728 30.088C60.0304 31.9829 61.0734 37.1614 59.1011 43.4207C58.445 45.503 56.8136 47.1342 54.7308 47.7889C52.6477 48.4433 50.3765 48.0391 48.6474 46.7059C50.979 43.6849 52.3054 39.8611 52.1463 35.7533C51.8868 29.0523 47.745 23.4104 41.9721 20.9116C37.9117 19.1583 35.2821 15.1589 35.2821 10.7362Z" fill="var(--jhm-primary-text-color)"/>
</svg>
