<svg width="72" height="72" viewBox="0 0 72 72" fill="none" xmlns="http://www.w3.org/2000/svg">
<path d="M38.1151 50.7613C48.3567 49.7816 57.8413 42.7461 57.8413 32.7717C57.8413 26.0478 53.6556 21.2387 47.8669 21.2387C41.054 21.2387 37.4472 27.4728 37.4472 33.8849C42.3453 33.8849 45.7295 36.4676 45.7295 40.208C45.7295 44.4827 42.1227 47.4216 37.4472 48.0895L38.1151 50.7613ZM14.8711 50.7613C25.1127 49.7816 34.5973 42.7461 34.5973 32.7717C34.5973 26.0478 30.4116 21.2387 24.6229 21.2387C17.81 21.2387 14.2032 27.4727 14.2032 33.8849C19.1013 33.8849 22.4855 36.4675 22.4855 40.208C22.4855 44.4827 18.8787 47.4216 14.1586 48.0895L14.8711 50.7613Z" fill="var(--jhm-primary-text-color)"/>
</svg>
