<svg width="72" height="72" viewBox="0 0 72 72" fill="none" xmlns="http://www.w3.org/2000/svg">
<path fill-rule="evenodd" clip-rule="evenodd" d="M32.3505 20.75C33.5175 21.0883 34.3205 22.1572 34.3205 23.3722L34.3205 39.852L45.6764 21.912C46.3262 20.8854 47.5764 20.4117 48.7434 20.75C49.9104 21.0883 50.7134 22.1572 50.7134 23.3722V46.5395H56.3777C57.8855 46.5395 59.1078 47.7618 59.1078 49.2696C59.1078 50.7774 57.8855 51.9998 56.3777 51.9998H47.9832C46.4754 51.9998 45.2531 50.7774 45.2531 49.2696V32.7898L33.8972 50.7298C33.2473 51.7565 31.9972 52.2301 30.8302 51.8918C29.6632 51.5535 28.8602 50.4847 28.8602 49.2696L28.8602 32.7898L17.5043 50.7298C16.8544 51.7565 15.6043 52.2301 14.4373 51.8918C13.2703 51.5535 12.4673 50.4847 12.4673 49.2696L12.4673 23.3722C12.4673 21.8644 13.6896 20.6421 15.1974 20.6421C16.7053 20.6421 17.9276 21.8644 17.9276 23.3722L17.9276 39.852L29.2835 21.912C29.9334 20.8854 31.1835 20.4117 32.3505 20.75Z" fill="url(#paint0_linear)"/>
<defs>
<linearGradient id="paint0_linear" x1="12.4412" y1="20.6172" x2="59.1392" y2="52.0247" gradientUnits="userSpaceOnUse">
<stop stop-color="#9C0D90"/>
<stop offset="1" stop-color="#058686"/>
</linearGradient>
</defs>
</svg>
