<svg width="72" height="72" viewBox="0 0 72 72" fill="none" xmlns="http://www.w3.org/2000/svg">
<path d="M27.4513 15.7996C23.4945 15.7996 20.0323 18.2726 20.0323 22.081V26.6314C20.0323 30.5388 23.2967 32.8139 28.2427 32.8139H42.5367C47.1365 32.8139 50.5988 29.9947 50.5988 26.2852V22.5262C50.5988 17.4318 46.3946 15.7996 42.3883 15.7996H27.4513ZM54.3577 42.6071V36.5729H16.8174V42.6071H32.1006V57H38.7777V42.6071H54.3577ZM29.0341 27.769C26.5116 27.769 25.8686 26.1862 25.8686 24.4057C25.8686 22.6746 26.7094 21.1908 29.0341 21.1908H41.3991C43.3281 21.1908 44.6141 22.2294 44.6141 24.4057C44.6141 26.6314 43.3281 27.769 41.3991 27.769H29.0341Z" fill="var(--jhm-primary-text-color)"/>
</svg>
