<?xml version="1.0" standalone="no"?>
<!DOCTYPE svg PUBLIC "-//W3C//DTD SVG 20010904//EN"
 "http://www.w3.org/TR/2001/REC-SVG-20010904/DTD/svg10.dtd">
<svg version="1.0" xmlns="http://www.w3.org/2000/svg"
 width="2336.000000pt" height="2336.000000pt" viewBox="0 0 2336.000000 2336.000000"
 preserveAspectRatio="xMidYMid meet">
<metadata>
Created by potrace 1.11, written by Peter Selinger 2001-2013
</metadata>
<g transform="translate(0.000000,2336.000000) scale(0.100000,-0.100000)"
fill="#000000" stroke="none">
<path d="M4817 15463 c-3 -5 -34 -111 -70 -238 -36 -126 -190 -666 -342 -1200
-652 -2290 -756 -2653 -931 -3270 -102 -357 -327 -1146 -500 -1753 -173 -607
-314 -1105 -314 -1108 0 -7 1569 -4 1574 4 2 4 196 678 431 1497 235 820 559
1951 720 2515 795 2776 1004 3507 1010 3533 l7 27 -790 0 c-435 0 -793 -3
-795 -7z"/>
<path d="M7272 11683 l3 -3788 835 0 835 0 6 1560 c5 1341 8 1577 21 1680 23
171 45 285 79 405 67 233 146 383 278 522 191 202 406 291 768 319 324 25 595
-30 781 -161 216 -152 348 -420 402 -815 6 -44 14 -91 17 -105 4 -14 9 -785
12 -1715 l6 -1690 838 -3 837 -2 0 1727 c0 1725 -4 1949 -36 2233 -64 564
-240 1007 -516 1295 -257 269 -608 441 -1063 520 -257 44 -653 58 -872 30
-589 -77 -1121 -403 -1453 -890 -39 -58 -78 -105 -86 -105 -12 0 -14 182 -14
1385 l0 1385 -840 0 -840 0 2 -3787z"/>
<path d="M17215 13698 c-391 -44 -786 -204 -1089 -442 -155 -121 -327 -300
-450 -468 -28 -38 -53 -68 -58 -68 -4 0 -9 186 -10 413 l-3 412 -790 0 -790 0
0 -2825 0 -2825 838 -3 837 -2 0 1582 c0 984 4 1628 10 1703 57 672 368 1066
945 1196 97 22 357 16 485 -10 361 -76 560 -270 646 -631 49 -202 47 -129 53
-2040 l6 -1795 837 -3 837 -2 4 1637 c3 1779 1 1696 58 1963 109 501 367 785
799 876 105 23 396 25 510 5 427 -76 652 -320 730 -791 36 -219 40 -404 40
-2068 l0 -1622 838 2 837 3 3 1795 c2 1165 -1 1869 -8 2005 -21 426 -90 717
-240 1020 -148 297 -348 514 -633 685 -198 118 -482 218 -754 265 -248 42
-636 59 -833 35 -592 -72 -1122 -379 -1505 -872 -48 -62 -90 -114 -94 -116 -4
-1 -23 33 -43 75 -100 214 -321 471 -518 602 -250 167 -551 269 -898 306 -150
16 -469 18 -597 3z"/>
<path d="M520 9730 c-58 -4 -125 -13 -150 -20 -117 -31 -231 -123 -285 -230
-50 -99 -56 -154 -62 -560 -6 -432 4 -625 38 -716 56 -151 160 -246 319 -291
59 -16 110 -18 565 -18 447 0 507 2 564 18 177 49 297 172 338 347 16 66 18
131 18 560 0 523 -1 539 -56 656 -32 67 -118 155 -188 193 -107 57 -153 62
-596 66 -220 2 -447 0 -505 -5z"/>
</g>
</svg>
