<?xml version="1.0" standalone="no"?>
<!DOCTYPE svg PUBLIC "-//W3C//DTD SVG 20010904//EN"
 "http://www.w3.org/TR/2001/REC-SVG-20010904/DTD/svg10.dtd">
<svg version="1.0" xmlns="http://www.w3.org/2000/svg"
 width="317.000000pt" height="317.000000pt" viewBox="0 0 317.000000 317.000000"
 preserveAspectRatio="xMidYMid meet">
<metadata>
Created by potrace 1.14, written by Peter Selinger 2001-2017
</metadata>
<g transform="translate(0.000000,317.000000) scale(0.100000,-0.100000)"
fill="#000000" stroke="none">
<path d="M2304 3155 c-2 -5 -26 -89 -55 -185 -44 -150 -172 -586 -255 -870
-14 -47 -44 -146 -66 -220 -22 -74 -43 -148 -47 -165 -10 -35 -139 -476 -182
-615 -36 -120 -308 -1046 -315 -1074 -5 -21 -5 -21 422 -21 l427 1 32 107 c18
59 33 110 34 112 1 3 3 10 6 17 2 7 20 69 40 138 60 206 170 579 215 730 18
58 38 125 45 150 27 92 105 358 130 440 14 47 27 92 29 100 3 12 164 555 330
1115 55 182 69 230 70 240 2 14 -855 15 -860 0z"/>
<path d="M195 950 c-4 -6 -10 -8 -14 -5 -13 7 -96 -50 -120 -83 -48 -68 -51
-96 -49 -396 3 -269 4 -283 25 -323 33 -60 79 -99 142 -119 82 -26 540 -26
618 0 81 27 139 92 159 176 10 48 12 483 1 545 -15 94 -51 144 -132 188 -38
21 -53 22 -332 24 -185 2 -294 -1 -298 -7z"/>
</g>
</svg>
